<svg width="620" height="320" viewBox="0 0 320 647" fill="none" xmlns="http://www.w3.org/2000/svg">
<path d="M222.5 32V32.5M222.5 32.5V24.5L223.5 23.5L225 22.5H226.5L227 21.5H228H229.5L230.5 22.5H231L234 26H238L240.5 23.5H244.5V26L245.5 27V27.5H255.5L256.5 26V22.5L257.5 21.5H260.5L266.5 27.5H272.5V26.5H275V25H276.5L278.5 23.5L280.5 25L282.5 27V28.5L281 29.5L281.5 33.5L283.5 34.5H285.5V45L282.5 49.5V52.5L290 61.5H292.5L293 60.5H303L303.5 61.5H305.5L306.5 62.5H308.5L309.5 63.5L314.5 69.5L318.5 72.5V75.5L317.5 77V78.5L308.5 91.5L305 94.5L302.5 95.5L301.5 97.5L300.5 99.5L299.5 100.5L297.5 101.5L295.5 103.5V105.5L292.5 107.5L291 108.5H288.5L286.5 109.5L284.5 111.5H281L280 112.5H279L268.5 123.5V124.5L267.5 125.5V129L266.5 129.5V131.5L265.5 132.5V133.5L257 141.5H251.5L250.5 142L250 142.5L246 140.5L242 134.5H237H236.5L235.5 132V131L236.5 130.5V126.5L235.5 125.5H232L230.5 125L228.5 127.5H224.5L223.5 126.5H221.5L221 125.5L215 125L211 124.5L209 122L208.5 120.5H207L206.5 119.5H205L206.5 117V116L207.5 115V112L208.5 111.5V108.5L209.5 107V105.5L214 103L214.5 101.5L210.5 96.5V88.5L215.5 85L217 80L221.5 79.5L223.5 78V75.5L222.5 73.5V67L225 60L226.5 57L227.5 52.5V51L228.5 50.5V47L226.5 44V43.5L225.5 42V36.5L225 32H224L223 33L222.5 32.5Z" stroke="white" stroke-width="2"/>
<path d="M197.5 315.5V314L197 312.5H190.5L186.5 315.5H180.5L178.5 317.5V318.5L175.5 321.5H174.5L173.5 322.5H172.5L170 324.5L168.5 325.5L164.5 329.5H163.5L155.5 323.5H153.5V324L152.5 324.5V325.5L151.5 326.5L150.5 328.5L149.5 330.5L148.5 332.5L147.5 334V335.5L148.5 336.5L149.5 337.5L152.5 341.5V343L150.5 345.5H149.5L147.5 346.5L146.5 347.5L145.5 348.5V349.5L144.5 351.5V352.5L144 354.5L142 355.5L141.5 356.5H140.5L139 357.5H138.5L136.5 358.5L133.5 361.5V362.5L130.5 366.5V367.5L129.5 368L128.5 368.5H123.5L121.5 369.5L115.5 375.5V379.5L116.5 380.5L119.5 383.5V384.5L123.5 388.5V389.5L126.5 392.5H127.5L129.5 390.5H130.5L131.5 389.5H133.5L135.5 390.5V392.5L136.5 393.5V394.5L137.5 395.5H138.5L139.5 394.5L140.5 393.5V392.5L141.5 391.5H143.5L146.5 394.5L147.5 396.5V398.5L148.5 399.5L149.5 400.5L150.5 399.5H151.5L152.5 398.5H153.5H154.5L156.5 400.5L157.5 401.5V402.5L159.5 404.5H161.5L162.5 405.5H169.5L171.5 403.5H174.5L175.5 404.5H177.5V404V403.5L179 402.5L179.5 403.5H181.5L182.5 402.5L183.5 400.5H189.5L190.5 399.5L191.5 398V397.5V396.5L190.5 395.5V394.5L192.5 392.5H194.5L195.5 393L197.5 396V397.5L198.5 398.5V401.5L202.5 406.5L203.5 407.5V408V411.5L204.5 412.5V416.5H205L207.5 417.5L210.5 420.5H215L218.5 417.5H223.5V421.5L220.5 424V425L223.5 428.5H225.5L231.5 422.5L232.5 420.5L233.5 418.5L235 417.5H240.5V416.5L241.5 414.5L243.5 413.5V412.5L242.5 411V409.5L243.5 408L244.5 404.5V403.5L250.5 397.5V390.5L249.5 389.5V388.5L248.5 387.5V386.5L247.5 385.5L244.5 383.5L243.5 382.5H242.5L240.5 383.5L238.5 384.5H237.5L235.5 383.5L234.5 381.5V380L235.5 377.5L234.5 375L234 374.5H231.5L229 372.5L223.5 366.5V360.5L218.5 356.5V355.5L217.5 353.5L216.5 351.5V349.5L217.5 348.5V338.5L215.5 337.5L213.5 335.5L211.5 334L202.5 324.5V323L197.5 315.5Z" stroke="white" stroke-width="2"/>
<path d="M126.5 393.5V392.5H127.5L129.5 390.5H130.5L131.5 389.5H133.5L135.5 390.5V392.5L136.5 394V394.5L137.5 395.5H138.5L140.5 393.5V392.5L141.5 391.5H143.5L147 395L147.5 397V398.5L149.5 400.5L150.5 399.5H151.5L152.5 398.5H154.5L157.5 401.5V402.5L159.5 404.5H161.5L162.5 405.5H169.5L171.5 403.5H174.5L175.5 404.5H177.5V403.5L179 402.5L180 403.5H181.5L183.5 400.5H189.5L191.5 398V396.5L190.5 395V394.5L192.5 392.5H194.5L196 393.5L197.5 396V397.5L198.5 398.5V401.5L203.5 407.5V411.5L204.5 412.5V416.5L207.5 417.5L210.5 420.5H215L218.5 417.5H223.5V421.5L220.5 424V425L223.5 428.5V429V430.5L222.5 431.5V433.5L221.5 434.5L220.5 436.5V445L216.5 449.5V454.5L215.5 455.5V458.5L216.5 459.5V460.5L213.5 463.5V464.5L214.5 465.5L215.5 466.5L217.5 467.5L218.5 468.5L219.5 469.5L220.5 471.5L221.5 472.5L222.5 474.5L223.5 476.5L224.5 477.5L225.5 479.5L226.5 480.5L227.5 482.5L235.5 490.5V495.5L236.5 496V497.5H235.5L234.5 498.5H233.5L231.5 500.5H230L228.5 499.5V494.5L227 491.5H224.5L223.5 490.5H220.5L219.5 489.5H218.5V486.5L217.5 485.5V484.5H216.5L215.5 483.5L214.5 482.5H213.5H211.5L210.5 483.5H209.5L207.5 485.5L206.5 486.5L205.5 487.5V488.5L204.5 489.5V490.5L200.5 494.5H199.5L198.5 495.5H197.5L196.5 496.5H183.5V495.5H183H180L179.5 494.5H178L168 489.5H165.5L164 490.5H162L151.5 482.5H149L148.5 481.5H146L145 482.5H144.5L143.5 481.5H141.5L138.5 479.5H132.5L131.5 478.5H130L128.5 477.5H126.5L125.5 476.5H121.5V475.5H117.5L115.5 474L114.5 473V472.5L117.5 469.5L118.5 468.5V468L118 466L117.5 465.5L117 463.5L116.5 463V460.5L115.5 458.5L114.5 457.5V456L113.5 454.5V452.5L112.5 451.5V451L111 449.5L110 448.5H109L107.5 449.5H106.5L104.5 450.5L102.5 451.5H101.5L98.5 449.5H95.5L94.5 450.5H92L90.5 449.5H86.5L85.5 448.5H84.5L83.5 447.5V439.5L84.5 438.5L85.5 437.5V435.5L86.5 434.5L87.5 434L88.5 433.5L89 432.5H90.5L91.5 431.5H93L95.5 429.5V428.5L96.5 427.5V426.5L97.5 425.5V424.5L98.5 423.5V422L97.5 420.5V418.5L98.5 417.5H99L100.5 418.5H101.5L102.5 419.5H103.5L104.5 418.5V413.5L106.5 412.5L108.5 411.5H115.5H119.5H121.5L122.5 412.5H123.5H124.5L128.5 416.5V418.5L131.5 421.5L132.5 420.5L133.5 419.5L134.5 418.5L133.5 417.5V416.5L131.5 414L130.5 412.5V409.5L129.5 408.5L128.5 407.5L127.5 406.5H126.5L125.5 405.5H123.5L122.5 404.5H121.5V403V401.5L122.5 400.5L123.5 399.5V398.5L124.5 396.5L125.5 394.5L126.5 393.5Z" stroke="white" stroke-width="2"/>
<path d="M238.5 498.5L236.5 497V497.5H235.5L234.5 498.5H233.5L232 500L231.5 500.5H230L228.5 499.5V494.5L227 491.5H224.5L223.5 490.5H220.5L219.5 489.5H218.5V486.5L217.5 485.5V484.5H216.5L214.5 482.5H211.5L210.5 483.5H209.5L205.5 487.5V488.5L204.5 489.5V490.5L200.5 494.5H199.5L198.5 495.5H197.5C197.333 495.833 196.9 496.5 196.5 496.5H183.5V495.5H180L179.5 494.5H178.5L168 489.5H165.5L164 490.5H162L151.5 482.5H149L148.5 481.5H146L145 482.5H144.5L143.5 481.5H141.5L138.5 479.5H132.5V483.5L133.5 484.5V492.5L132.5 493.5H131.5L131 494.5H129.5L128.5 495.5H126.5L125.5 496.5H123.5L122.5 497.5H121.5L121 498.5H119.5L118.5 499.5V501.5L117.5 502.5L116.5 504.5L114.5 507.5V513.5L113.5 514.5L112.5 515.5V517.5L115.5 520.5L116.5 521.5V522V536.5L115.5 537.5L114.5 538.5H109.5V538L108.5 537.5H98.5L97.5 538.5H94.5L93.5 539.5H91.5L90.5 540.5V546.5L89.5 547.5L88.5 548.5L87.5 549.5L85.5 550.5L84.5 551.5H81.5L80.5 550.5H78.5L77.5 549.5L76.5 548.5V547.5L75.5 546.5V545.5L73.5 543.5H69.5L68.5 542.5H65.5V551.5L66.5 552.5H69.5L70.5 553.5V554.5H69.5L68.5 555.5H67.5V557.5L66.5 558.5V561.5L65.5 562.5V568.5L64.5 569.5V572.5L65.5 573.5V574.5L66.5 575.5V577.5L67.5 578.5V580L67 581.5L66.5 582.5V583L65.5 584.5V585.5L64.5 586.5V587.5H65H66H67.5L68.5 588.5L69.5 589.5V590.5V591.5L70.5 592.5L71.5 593.5L73.5 594.5H75.5L77.5 595.5L79.5 596.5H80.5L81.5 595.5H82.5L83.5 594.5H85.5L88.5 592.5H89.5L91.5 593.5L93.5 594.5H97.5L98.5 595.5H100.5L101.5 594.5H102.5L107.5 590.5H114.5L115.5 589.5H116.5L119.5 592.5V596.5H120L121.5 597.5L124.5 598.5H125L126.5 599.5H129L134.5 602.5H144.5L145.5 601.5L147.5 600.5V599.5L147 599L146.5 598.5V597L147.5 595.5L148.5 594.5H157.5V591.5L158.5 590.5H161.5L162.5 589.5L163.5 588.5L165.5 587.5H167.5L168.5 586.5H171.5L172.5 585.5H173.5L177.5 581.5H181.5L183.5 583.5H185.5L188.5 580.5H193.5L194.5 579.5H195.5L196.5 578.5L195.5 576.5V574.5L196.5 573.5V571.5L197.5 569V567.5L198.5 566.5V564.5L199.5 563.5V562.5L200.5 561.5V560.5L201.5 558.5L202.5 557.5L203.5 556.5V552.5L207.5 548.5H208.5L211.5 546.5L212.5 545.5V544.5H213.5V543.5H214.5V543V542.5L215.5 541.5V540.5L217.5 538.5V537.5L218.5 536.5V535.5L219.5 534.5V533.5L220.5 531.5V530.5V529.5L221.5 528.5V527.5L222.5 525.5V524.5L223.5 523.5L224.5 522.5H227.5L229.5 521.5L231.5 520.5L234.5 518.5H238.5H243.5L245.5 516.5V514.5L246.5 513V511.5L247.5 509.5V508.5L248.5 507.5V506.5V505.5L249.5 503.5V502.5L250.5 502V499.5L251.5 498.5V497.5V496.5L250.5 495.5V495H248.5L247.5 496.5L244.5 497L242.5 498.5H238.5Z" stroke="white" stroke-width="2"/>
<path d="M196.5 579L198.5 581.5L199.5 582.5V585.5L200.5 586.5V588.5L201.5 589.5V605.5L203.5 607.5L204.5 609L203.5 610.5V611.5L202.5 612.5V614.5L203.5 616.5L204.5 618V620.5H203.5L201.5 621.5V622.5H195.5V623V623.5H190.5L182.5 632.5L181.5 633.5L178.5 636.5V638.5H174.5V637.5H171.5L170.5 638.5L168.5 640.5H165L163.5 641.5L162.5 642L159.5 642.5V645L158.5 645.5H153.5H152.5V643.5H147L138.5 638.5L133.5 635.5L130.5 634.5H129L128.5 633.5H125L124.5 634.5H121.5V632.5L120.5 631.5H119.5L118.5 632.5V633.5L117.5 634.5H114.5L111.5 631.5H107.5V632.5H97.5V631.5H95.5V630.5H94.5V629.5H93L92.5 628.5L91.5 627.5H90.5L90 628.5V629.5H88.5L87.5 630.5H85L84.5 629.5L82.5 628.5L81.5 629.5V630L78.5 630.5L78.2667 631.5H75.5V633.5H71.5L70.5 634.5L69.5 635.5H67.5L67 634.5H64L62.5 635.5L61.5 636.5L60.5 637.5H56.5V638.5H54.5V639.5H53.5V641.5H49.5V639.5H46.5V637.5L48.5 635.5L49.5 634.5V632.5L50.5 631.5L51.5 629.5L52.5 627.5L53.5 626.5L54.5 625.5V624.5L55.5 623.5V621.5L54.5 620.5V618.5L58.5 615L59.5 613.5V608.5L58.5 607V605.5L59.5 605V602.5L60.5 601.5V599.5L61.5 598.5L62.5 597.5V595.5L63.5 594V592L64.5 591.5V587.5H67.5L69.5 589.5V591.5L71.5 593.5L73.5 594.5H75.5L79.5 596.5H80.5L81.5 595.5H82.5L83.5 594.5H85.5L88.5 592.5H89.5L93.5 594.5H97.5L98.5 595.5H100.5L101.5 594.5H102.5L107.5 590.5H114.5L115.5 589.5H116.5L119.5 592.5V596.5L121 597L125 598.5L126.5 599.5H128.5H129.5L134.5 602.5H144.5L146 601L147.5 600.5V599.163L146.5 598V596.5L148 595L149 594.5H157.5V591.5L158.5 590.5H162L163.5 588.5L165.5 587.5H167.5L168.5 586.5H171.5L172.5 585.5H173.5L177 582L177.5 581.5H181.5L183.5 583.5H185.5L188.5 580.5H193.5L195 579.5L196.5 579Z" stroke="white" stroke-width="2"/>
<path d="M97 419.5H90L88.5 418.5L89.5 416.5L90.5 415.5V413.5H88.5L85.5 416.5L83.5 415.5L80.5 412.5H78.5L75.5 415V418.5L74.5 419.5V422.5L72.5 424.5H69.5L67.5 422.5H63.5L62.5 423.5H57.5L56.5 422.5H54.5V423.5H47.5L46.5 424.5L44.5 426.5V427.5V429.5H45H47.5L48.5 428.5H50.5L52.5 429.5V430.5L51.5 431.5H48.5V432.5L49.5 433.5V434.5H42.5V435V437.5L43.5 440.5V443.5H42.5L38.5 438.5H36.5V435.5H35.5L34 434.5V432.5H32.5L31.5 433.5H28L27.5 434.5H26.5L24 434L22 433L20.5 434.5L22 435.5L26 439L28 441V443.5L30.5 447.5V454.5H29.5V460.5H29L28.5 461.5V464L27.5 464.5V465.5V466.5H30.5L31.5 466L32.5 465.5H33.5L36.5 464.5L39.5 463.5H40.5H44.5L46.5 462.5L48.5 461.5L50.5 460.5H51.5L52.5 459.5L53.5 458.5L56.5 456.5V455.5H61.5V454.5H62L68.5 459.5H71.5L72.5 458.5L73.5 458V452.5L74.5 450.5L75.5 449.5L76.5 450.5V453.5L77.5 454.5V455.5L76.5 456.5V461.5V463.5H79.5V464.5L84.5 468.5H85.5V472.5H84.5L83.5 471.5V469.5L80.5 467.5H76.5L75.5 466.5V465.5H71.5V463.5H69.5L68.5 462.5L67.5 463.5V465.5L60.5 458.5L59.5 457.5L59 458V459.5L67.5 468.5L68.5 470.5L69.5 472.5V474.5V475.5L70.5 477.5V489.5V493.5L69.5 494.5V496.5V497.5L68.5 498V501L67.5 502.5V504.5H66.5V509.5L65.5 511V512.5L64.5 514.5V515.5L63.5 516.5V517.5L62.5 518.5V519.5L58.5 522.5V523.5L61.5 524V526.5H62.5L65.5 527.5V542.5H68.5L69.5 543.5H73.5L75.5 545.5V546.5L76.5 547.5V548.5L78.5 550.5H80.5L81.5 551.5H84L85 551L86 550.5L90.5 546.5V540.5L91.5 539.5H93.5L94.5 538.5H97.5L98.5 537.5H108L109.5 538V538.5H114.5L116.5 536.5V536V521.5L112.5 517.5V515.5L114.5 513.5V507.5L118.5 501.5V499.5L119.5 498.5H121L121.5 497.5H122.5L123.5 496.5H125.5L126.5 495.5H128.5L129.5 494.5H131L131.5 493.5H132.5L133.5 492.5V484.5L132.5 483.5V479.5L131.5 478.5H130L128.5 477.5H126.5L125.5 476.5H121.5V475.5H117.5L115 473.5L114.5 472.5L118.5 468L117.5 465.5L116.5 463V460.5L114.5 457.5V456L113.5 454.5V452.5L112.5 451.5V451L110 448.5H109L107.5 449.5H106.5L102.5 451.5H101.5L98.5 449.5H95.5L94.5 450.5H92L90.5 449.5H86.5L85.5 448.5H84.5L83.5 447.5V439.5L85.5 437.5V435.5L88.5 433.5L89 432.5H90.5L91.5 431.5H93L95.5 429.5V428.5L96.5 427.5V426.5L97.5 425.5V424.5L98.5 423.5V422L97.5 420.5V419.5" stroke="white" stroke-width="2"/>
<path d="M54.5 415.5V422.5H56.5L57.5 423.5H62.5L63.5 422.5H67.5L69.5 424.5H72.5L74.5 422.5V419.5L75.5 418V415L78.5 412.5H80.5L83.5 415.5L85.5 416.5L88.5 413.5H90.5V415.5L89.5 416.5L88.5 418.5L90 419.5H97H97.5V418.5L98.5 417.5H99.5L100.5 418.5H101.5L102.5 419.5H103.5L104.5 418.5V413.5L108.5 411.5H121.5L122.5 412.5H124.5L128.5 416.5V418.5L131.5 421.5L134.5 418.5L133.5 417.5V416.5L130.5 412.5V409.5L127.5 406.5H126.5L125.5 405.5H123.5L122.5 404.5H121.5V401.5L123.5 399.5V398.5L125.5 394.5L126.5 393.5V392.5L123.5 389.5V388.5L119.5 384.5V383.5L115.5 379.5V375.5L120 371L121 370L123.5 368.5H128.5L130.5 367.5V366.5L133.5 362.5V361.5L136 359L138.5 357.5L139.5 357L141 356.5H141.5L142 355.5L144 354.5L144.5 352.5V351.5L145.5 349.5V348.5L148 346L150 345.5H150.5L152.5 343V341.5L147.5 335.5V334L151.5 326.5L152.5 325.5V324.5L153.5 324V323.5H155.5L163.5 329.5H164.5L170 324.5L170.5 324L165 317L162 314L161.5 312.5L158.5 310.5H156.5V309.5H154.5V304.5L153.5 303.5H152.5L151.5 302.5H145L143.5 303.5V305.5H142.5V313.5L141.5 314.5V315.5L140.5 316.5H135.5L134.5 315.5H132L131.5 314.5H130.5L129.5 313.5V307.5L130.5 306.5V304.5L129.5 303.5V301.5L124.5 298V294.5H124H122.5H120.5L119.5 295.5L118.5 296.5H117.5L116.5 297.5H111.5L110.5 298.5H106.5L105.5 297.5L104.5 296.5V291.5L103.5 290.5V289.5H102.5H101H100.5L99.5 290.5H98.5L97.5 291.5H96.5L95.5 292.5L93.5 293.5L91.5 294.5L90.5 295.5H87.5V296.5H85.5L84.5 297.5H83.5V301.5L85.5 304.5V309.5L80.5 314.5V315V318.5L82.5 320.5V324.5L81.5 325.5V326.5H79L77.5 327.5V328.5V329.5L76.5 330.5L74.5 331.5H72L70.5 332.5H68.5L67.5 333.5H64.5L63.5 334.5H62.5L60.5 336.5L59.5 337.5V338.5V339.5L58.5 340.5L57.5 341.5L56.5 342.5H54.5L53.5 343.5H52.5L51.5 344.5V352.5L53.5 354.5V359.5L54.5 360.5H63.5L64.5 361.5L68.5 365.5V367.5L67.5 368.5H60.5V369.5L61.5 370.5L62.5 371.5L63.5 372.5V373L66.5 376.5V377.5L72.5 383.5V384.5L66.5 389.5L65.5 391V393.5L64.5 394V396.5L63.5 397.5V401.5L62.5 402.5L61.5 404.5V406.5L55.5 412.5V414.5L54.5 415.5Z" stroke="white" stroke-width="2"/>
<path d="M89.5 140.5L88.5 141.5V148.5L87.5 149.5V153.5L86.5 154.5V157.5L85.5 159V161.5L84.5 163.5V166L83.5 168V170L81.5 175.5L80.5 177V179.5L79.5 181V183.5V184.5V186V187V187.5H81.5V187V182.5L82.5 180.5L83.5 179V177.5V174.5L84.5 172.5L85.5 170.5V169.5L86 169L87.5 168.5L89.5 168L90 168.5V169.5L86.5 172.5L85.5 173.5V177.5H92.5V179.5H89.5L88.5 180.5H87.5V182V182.5H88.5L89.5 183.5H91.5L92.5 184.5V185.5H88.5L85.5 189.5H82.5V190.5L81.5 191V193.5L80.5 194.5V196.5L79.5 197.5L78.5 199.5V202L81.5 204.5V205.5L83 206.5V209.5L84.5 210.5L85.5 211.5H86.5L88.5 209.5L89.5 207.5L90.5 206.5L91.5 205.5H92.5L94.7219 207.5L95.5 209V210L94.7219 210.5L94.5 214.5L95.5 215.5H99L102.5 218.5V222L103.5 223.5V224L101.5 227.5H99L98.5 228.5V230L99.5 230.5H102.5L103.5 231.5H106.5L110 228.5V223.5L112.5 220.5L114.5 219.5H116.5V215.5L119.5 211.5V210.5L117.5 208.5V205.5H119.5L120.5 204.5H123.5L125.5 203V201.5L124.5 200.5V199.5L122.5 197.5V195.5L121.5 194.5V193L124.5 191.5V189.5L122.5 187.5V184.5L120.5 182V180L119.5 179V177L120.5 175L124.5 170L127.5 168V166.5L128.5 165.5L126.5 164V161.5L127.5 160.5H129.5L131 162.5H132L133 161.5H134.5L135.5 163L137.5 165.5H138.5L139.5 164.5L140 162.5L141.5 160.5V158.5L139.5 156.5V154L136.5 151.5V149.5L138 148.5H140L141 147.5L142.5 146.5V144L140.5 142.5L137 144.5H134L131 143L127.5 140.5L129.5 138L129.605 136.5L129 135.5H125.5L124.5 134.5L122 135L120.5 136.5H117L115 139.5L115.5 141L114.5 142L112.5 142.5L110.5 141V140L109.5 137.5H107L105.5 138V140.5H102.5L100.5 137.5H99L96.5 141.5H94L93.5 140.5" stroke="white" stroke-width="2"/>
<path d="M75 207.5L78.5 202L81.5 204.5V205.5L83 206.5V209.5L85 211.5H86.5L88 210L89 208L91.5 205.5H92.5L95.5 208.5V209.5L95 210L94.5 212V214.5L95.5 215.5H99L102.5 218.5V221.5L103.5 224L101.5 227.5H98.5V229.5L99.5 230.5H102L103.5 231.5H106.5L110 228.5V223.5L112.5 220.5L114.5 219.5H116.5L123.5 226H124.5L126.5 227.5H131.5L133.5 225.5H136.5L138.5 227.5H142.5L155.5 215.5H157.5L162.5 211.5H163.5L164.5 210.5V208.5L167.5 206.5V208.5L168.5 209.5V212L164.5 214.5L171 221V228L167.5 232V235.5L168.5 237V241L167.5 242.5V243.5L176.5 253.5V256.5H175.5L174.5 257.5H173.5L171.5 259.5H168.5V262.5H166L165 261.5H162.5L162 262.5H160.5L159.5 263.5V269.5H158.5V270V270.5H157.5V271.5H156.5L153.5 272.5L153 273.5H151.5L150.5 274.5H141L134.5 268.5L133.5 266.5V265.5L132.5 264.5L133 263.5L133.5 262.5L133 261.5L132.5 260.5L131 259.5H129L126.5 261.5H125.5L121 264.5V265.5L122.5 268V271.5L121 272.5H120L119 271.5H118L116.5 273V275L115 275.5L114.5 276.5H113.5L112.5 276V273.5L111.5 273V270L110.5 269L109 267.5H107.5L105 268.5H102.5L99.5 271.5V273.5L97.5 275.5H96.5L95.5 275V266.5H95H91.5L90.5 267.5H86.5L84.5 266L81.5 263.5H79.5L78 262.5H75.5L74 263.5L69.5 266H68.5L64.5 262.5V261L65 259.5V257.5L66.5 254.5H69.5L70.5 253.5V252.5L62.5 246.5V244.5L63.5 243.5V242.5L64.5 240.5L69.5 230.5V229.5L70.5 228.5V226.5L71.5 224.5V222.5L72.5 221.5V216.5L73.5 215.5V210L75 207.5Z" stroke="white" stroke-width="2"/>
<path d="M51 351.5H46.5L46 352.5H44.5L44 353.5H43.5L42.5 354.5L40.5 356.5L39.5 357.5L38.5 359.5L37.5 360.5L36.5 361.5V363.5L35.5 364.5H34.5L33.5 363.5L32.5 362.5V359.5L31.5 358.5V353.5L30.5 352.5H25.5L24.5 353.5L23.5 354.5V355.5H22.5L21.5 354.5H20.5L19.5 355V356H18L15.5 353.5V350.5H15H13L11.5 350V348.5L14.5 348L16 347.5H19.5L25.5 341.5V340.5H27L28 341L29 341.5V342.5L28.3193 343.5L28.5 344.724L29.5 345.5H31.5L32 344.5L33.5 344.724V343.5L32.5 342L31.5 341.5V340V339.5L30.5 339H29.5V336.5L39.5 326.5V325.5L40.5 324.5V323.5L42.5 321.5V320.5V316.5L43.5 315.5L44.5 314.5V313L45 312.5L45.5 310.5H46.5V304.5L47.5 303.5V302.5V301.5L48.5 301V299.5L49 298V297.5L50.5 296.5V295.5L51.5 294.5V293.5L52.5 292L53.5 291V289.5L54.5 288.5L55 287.5V286.5L56.5 285L57.5 282.5L58.5 281V279.5L59.5 278.5V275.5L60.5 274.5V274L61.5 272V269.5L62.5 268.5V266.5L64.5 265V262.5L68.5 266H69.5L75.5 262.5H78L79.5 263.5H81.5L86.5 267.5H90.5L91.5 266.5H95.5V267V275L97.5 275.5L99.5 273.5V271.5L102.5 268.5H105L107 267.5H109L111.5 270V273L112.5 273.5V276L114.5 276.5L115 275.5L116.5 275V273L118 271.5H119L120 272.5H121L122.5 271.5V268L121 266V264.5L125.5 261.5H126.5L128.5 259.5H130L132 260L133.5 262.5L132.5 264.5L133.5 265V266.5L134.5 268.5L141.5 274.5V275V278L140.5 279.5V280.5L139.5 281.5V282.5L134 287.5H132.5L131.5 288L130.5 289.5H127.5L126 291L124.5 294.5H120.5L119 296.5H117.5L117 297.5H111.5L110.5 298.5H106.5L104.5 296.5V291.5L103.5 289.5H100.5L99.5 290.5H98.5L97.7773 291.5H96.5L91 295.5H87.5V296.5H85.5L84.5 297.5H83.5V301.5L85.5 304.5V309.5L80.5 314.5V318.5L82.5 320.5V324.5L81.5 325.5V326.5H79.5L77.5 327.5V329.5L74.5 331.5H72L70.5 332.5M51.5 351.5V344.724L52.5 343.5H53.5L54.5 342.5H56.5L59.5 339.5V337.5L62.5 334.5H63.5L64.5 333.5H67.5L68.5 332.5" stroke="white" stroke-width="2"/>
<path d="M17.5 355V356M41.5 414L42.5 413M42.5 413L41 414.5L40.5 422.5L39.5 423.5V427.5L38.5 428.5L37 431H29H20.5L20 431.5H18.5H16H12V431L11 430H4.5L3.5 428.5L3 427.5L3.5 426V424.5L2.5 423.5L1.5 422.5V420.5V418.5L5.5 414.5V412.5L6.5 410.5V408.5L7.5 407.5V404.5L8.5 402.5V393.5L9.5 392.5V387.5L8.5 387V384.5L9.5 383.5L10.5 381.5V378.5L11.5 377.5V376.5L15.5 372.5L16.5 370.5V369.5L17.5 366.5V356M42.5 413L46 409L48.5 405L49.5 402L51 399.5L53 397L54.5 395.5L56 393.5L57 392L58 390.5L59 388.5H67M67 388.5L64 391L60 390.5L58 394.5L56.5 395.5V398L54.5 401L53 403.5V407V410V413L54.5 414L57 411.5L61.5 407L62 403.5L63.5 401L64 397L65 394.5L66 390.5L67 388.5ZM67 388.5L72 384.5M72 383.5L66 376.5L60.5 369.5V368.5H67.5L68.5 366.5L64 361L54.5 360L53 359.5V353.5L51 351.5H47L45.5 352.5L44.5 353L43 354L36.5 361V363L35.5 364.5L32.5 363V359.5L31.5 358V353.5L29.5 352.5L25.5 353L23 355L21 354L19.5 355.5L17.5 356" stroke="white" stroke-width="2"/>
<path d="M252.5 238.5H253H251.5L248 241.5L247.5 243.5V244L246.5 245V245.5L245.5 246.5V248.5H244.5V253L245 254L245.5 255V255.5L246.5 256.5L247.5 257.5H250L251.5 259.5L252.5 261L256.5 266V266.5L257.5 267.5V270L256.5 270.5V272.5L257.5 273.5V276L256.5 277.5L255.5 278.5V280.5L256.5 282L257.5 283.5V284.5L256.5 286.5L252.5 290.5V297.5L251.5 298.5V301.5H250.5V304.5L249.5 305.5V307.5L248.5 308.5V309.5L247.5 310.5L246.5 311.5H245.5L244.5 312.5L243.5 313.5H242.5L241.5 314.5H238L237.5 315.5H232.5L231.5 314.5H219.5L218.5 315.5H212.5L211.5 314.5H207.5L205 313.5H199.5L198 314L197.5 313.5L197 312.5H190.5L189.5 313.5L186.5 315.5H180.5L179.5 316.5L178.5 317.5V318.5L177.5 319.5L176.5 320.5L175.5 321.5H174.5L173.5 322.5H172.5L171.5 323.5L170.5 324.5L169.5 323.5L166.5 318.5L162.5 314.5L161.5 312.5L160 311.5L158.5 310.5H156.5V309.5H154.5V304.5L153.5 303.5H152.5L151.5 302.5H144.5L143.5 303.5V305.5H142.5V313.5L141.5 314.5V315.5L140.5 316.5H135.5L134.5 315.5H132L131.5 314.5H130.5L129.5 313.5V307.5L130.5 306.5V304.5L130 304L129.5 303.5V301.5L128.5 300.5L125.5 298.5L124.5 298V295.5V293.5L125.5 291.5L127 290L127.5 289.5H130.5L131 288.5L131.5 288L132.5 287.5H133.5L134.5 287L136.5 285.5L137.5 284.5L138.5 283.5L139.5 282.5V281.5L140.5 280.5V279.5L141.5 278.5V277.5V275.5V274.5H150.5L151.5 273.5H153L153.5 272.5H154.5L156.5 271.5H157.5V270.5H158.5V269.5H159.5V265.5V263.5L160.5 262.5H161.5L162.5 261.5H164.5L166 262.5H168.5V259.5H171.5L172.5 258.5L173.5 257.5H174.5L175.5 256.5H176.5V253.5L168.5 244.5L167.5 243.5V242.5L168.5 241.5V237.5V237V236.5L170.5 238.5H175.5L177.5 237L184 229.5H192L195.5 226.5V224.5L196 223.5L197.5 222.5V220.5L198.5 220V218.5L199.5 217.5H206.5L207 218.5H208.5L210.5 219.5H212.5V217.5L214.5 216L215 216.5H216.5L217.5 217.5H218L219.5 218V219.5L220.5 220.5V225L219 226.5L217 229.5L214.5 232.5V233.5L216.5 234.5H220.5V235.5H226.5L227.5 234.5H228.5L229.5 233.5H230.5L233.5 231.5H237.5L238.5 232.5H243L243.5 233.5H248.5L249.5 234.5H250.5L253.5 237.5V238.5" stroke="white" stroke-width="2"/>
<path d="M221 125.5H216.5V129.5L215.5 130.5V132L214.5 133.5V136.5L209.5 144L211.5 147.5V151.5L207.5 155.5H204.5L201.5 157V159.5L204.5 162.5V165L202.5 167.5H200H198.5L198 166.5L196.5 164.5L195.5 162L194.5 160.5H192L190.5 163.5V164.5L187.5 167.5V171.5L190.5 173.5V177L189.5 178.5V181.5L190.5 182.5L193.5 183.5L194.5 184.5L194 186L193.5 186.5V191.5L192.5 192.5V193.5L191.5 194V195L191 197.5H190.5V199.5H189L188.5 200.5H187L186.5 201.5H181L179.5 203.5H179L177.5 204.5H174L173 205.5H170L168.5 206.5H167.5V208.5L168.5 209.5V212L164.5 214.5L169.5 219.5L171 221V228L169.5 229.5L168.5 231L167.5 232.5V235.5L168.5 236.5L169.5 237.5L170.5 238.5H175.5L176.5 238L184 229.5H192L193.5 228.5L194.5 227.5L195.5 226.5V224.5L196 223.5L197.5 222.5V220.5L198.5 220V218.5L199.5 217.5H206.5L207 218.5H209L210.5 219.5H212.5V217.5L214 216.5L214.5 216L215 216.5H216.5L217.5 217.5H218.5L219.5 218V219.5L220.5 220.5V225L219 226.5L218.5 227.5L217.5 228.5L216.5 230.5L215.5 231.5L214.5 232.5V233.5L216 234.5H220.5V235.5H226.5L227.5 234.5H228.5L229.5 233.5H230.5L233.5 231.5H237.5L238.5 232.5H243L243.5 233.5H248.5L249.5 234.5H250.5L253.5 237.5V238.5H258.5L259.5 237.5L260.5 236.5V235.5L261.5 235V233.5L262.5 232.5V232L263.5 230.5H265.5V230L267.5 227.5V226L259.5 216.5V214.5L263.5 208L264.5 206V202.5L263.5 201.5L262.5 200.5H261.5L260.5 199.5V197.5L264.5 193.5V189.5L263.5 189L263 187.5L262.5 186.5L262 179.5L261.5 178.5V176.5L262.5 175.5V171.5L261.5 170L260.5 168L261.5 166.5V165.5L262.5 164.5V160.5H262L259.5 158.5L258.5 157.5V156L257.5 154.5L257 153L254 149.5L253.5 148.5L250.5 146.5V146V145V142.5L249 142L247.5 141L246 140.5L244.5 138.5L243.5 137.5L242 134.5H236.5L235.5 132.5V131.5L236.5 130.5V126.5L235.5 125.5H232L230.5 125L228.5 127.5H225L223.5 126.5H221.5L221 125.5Z" stroke="white" stroke-width="2"/>
<path d="M129.5 137.5V136L129 135.5L132.5 131.5H136V132.5H138.5L142.5 129.5L146 131.5H148L152.5 128.5H159.5L162.5 124.5H164L164.5 125.5H167.5L168.5 124.5H172.5L175.5 126.5H179.5L181.5 124.5H184V125.5H187.5V124.5H190.5L196.5 119.5H204.5H205.5H206.5L207 120.5H208.5L209 121.5V122L209.5 123L210 123.5L211 124.5L214.5 125L216.5 125.5V130L215.5 130.5V132.5L214.5 133.5V136.5L213.5 138.5L209.5 143.5V144.5L211.5 147.5V151.5L210.5 152.5L207.5 155.5H204.5L202.5 156.5L201.5 157V159.5L204.5 162.5V165.5L203.5 166.5C203 166.833 202.1 167.5 202.5 167.5H198.5L198 167V166.5L197 165.5L196.5 164.5L195.5 162.5V162L194.5 160.5H192L191.5 161.5L190.5 163.5V164.5L187.5 167.5V171.5L190.5 173.5V177.5L190 178L189.5 178.5V181.5L190.5 182.5L193.5 183.5L194.5 184.5L194 186L193.5 186.5V191.5L192.5 192.5V193.5L191.5 194V194.5V195L191 197.5H190.5V199.5H190H189L188.5 200.5H187L186.5 201.5H181L180.5 202.5L179.5 203.5H179L177.5 204.5H174L173 205.5H170L168.5 206.5H167L166.5 207.5L165.5 208L164.5 208.5V209.5V210.5L163.5 211.5H162.5L162 212.5L160 213.5L158.5 214.5L157.5 215.5H155.5L142.5 227.5H138.5L137.5 226.5L136.5 225.5H133.5L133 226L132.5 226.5L131.5 227.5H126.5L126 227L125 226.5L124.5 226H123.5L122.5 225L120 222.5L116.5 219.5V215.5L119.5 211.5V210.5L117.5 208.5V205.5H119.5L120.5 204.5H123.5L124.5 203.5L125.5 202.5V201.5L124.5 200.5V199.5L123.5 198L122.5 197.5V195.5L121.5 194.5V193L124.5 191.5V189.5L122.5 187.5V184.5L120.5 182V179.5L119.5 179V177L120 176L121 174.5L121.5 173.5L122.5 172.5L123.5 171.5L124.5 170.5L125 169.5L126.5 168.5L127.5 168V166.5L128.5 165.5L126.5 163.5V161.5L127.5 160.5H129.5L131 162.5H132.5L133.5 161.5H134.5L137.5 165.5H139L139.5 164.5V163.5L140.5 161.5L141.5 160.5V160V158.5L139.5 156.5V154L139 153.5L136.5 151.5V149.5L137.5 148.5H140.5L141 147.5L142.5 146.5V144L141.5 142.5H140.5L138.5 143.5L137 144.5H136H134L132 143.5L130 142.5L127.5 140.5L129.5 138V137.5Z" stroke="white" stroke-width="2"/>
<path d="M77.5 82.5V84.5H78.5V86.5L79.5 87.5V89.5H78.5V94.5L79.5 95.5V97.5L80.5 98.5L81.5 100V101V101.5L82.5 104.5V106L83.5 106.5V112L84.5 113.5V117L86 118.5H86.5V125.5H87.5H92.5L93 127.5L94.5 128.5L95 129.5L93.5 130.5L93 131.5L92.5 132.5H89.5V140.5H93.5L94 141.5H96.5L97.5 140L99 137.5H100.5L101.5 139.5L102.5 140.5H105.5V138L106.5 137.5H109H109.5L110 138.5L110.5 140V141L112.5 142.5H114L115.5 141L115 139.5L117 136.5H120.5L121.5 135L123 134.5H124.5L125.5 135.5H129L132.5 131.5H136V132.5H138.5L142.5 129.5L146 131.5H148L152.5 128.5H158" stroke="white" stroke-width="2"/>
<path d="M144 42.5L146.5 42L148.5 41.5L149.5 39L151 36L153 34.5L155 33L156 30.5L158.5 29.5L161 30.5V33V38H163L165 36.5L167.5 35C167.833 34.8333 168.7 34.5 169.5 34.5C170.3 34.5 171.167 34.5 171.5 34.5L173 33H178.5L179.5 36L187.5 35.5L186.5 38L185 40.5L185.5 42.5H187.5L188.5 41H193L194.5 40.5V38L195.5 36L198.5 37.5L199.5 40.5L200.5 42L202 43.5H205.5L208 39H214L216.5 38.5V37.5H219.5L218.5 36.5H220L222 34.5L224 32H225L225.5 36.5V42L226.5 43.5V44L227.5 45.5L228.5 47V50.5L227.5 51V51.5V52V52.5L226.5 56V57L225 60L224.5 62.5L223.5 64.5L222.5 67V73.5L223.5 75.5V78L221.5 79.5L217 80L216 83L215.5 85L213.5 86.5L210.5 88.5V96.5L214.5 101.5L214 103L209.5 105.5V107.5L208.5 108.5V111.5L207.5 112.5V115L206.5 116.5V117.5L204.5 119.5H196.5L190.5 124.5H187.5V126L184 125.5V124.5H181.23L179.5 126.5H175.5L172.5 124.5H168.5L167.5 125.5H164.5L164 124.5H162.5L161.5 125.5L159.5 128.5H158.5V120.5L159.5 119.5V118.5L160.5 117.5V114.5L161.5 113.5V112.5L160.5 111.5L158.5 109.5V108L157 107.5L158.5 105L157 103.5L155 102.5L154.5 101.5V99L153 98H152.5L153 93H155.5L156.5 91.5L157 88.5L159.5 83.5L161 82.5L170 75L168.5 69L166.5 66.5H163L162.5 69L159.5 70.5L151 66.5V64L150 61V57.5H149.5H145L143 58.5L141 57.5V55.5L146.5 49V45L144 43" stroke="white" stroke-width="2"/>
<path d="M69.5 50C69.5 50.4 70.1667 51.5 70.5 52L71.5 54.5L73.5 58.5L74 61.5V64.5V67.5H77L80.5 66.5L82.5 65.5L85 64.5L87.5 63.5L90 62.5L92 63.5L94.5 64.5L97 65.5L99 64.5L100.5 63.5L100 57.5H101.5L102 54.5L103 52.5L104.5 52H106.5L108 50H112L115 48L118 48.5L124.5 48L126 46.5L129 45L131.5 43.5L135.5 42.5L135 33.5L133.5 33L131.5 32L130.5 30.5V29L131.5 27.5L133 27L133.5 25.5H134.5V23.5H136V20L138 19L141 18C141.167 16.1667 141.6 12.2 142 11C142.4 9.8 140.833 9.83333 140 10L136.5 11L133.5 10.5H132.5L131.5 10L132.5 8L133.5 7L133 3L131.5 2L129 3H127H126L125 4H123L121.5 5.5L120.5 7.5L119.5 9H116.5V10.5H110L109 9L104.5 10L96 14.5L82.5 27L68 42L69.5 46.5M69.5 50C69.5 49.6 69.5 47.5 69.5 46.5M69.5 50V46.5" stroke="white" stroke-width="2"/>
<path d="M77 81.5L80.5 83.5L83 84.5L84 86L86.5 88L90 90.5L93 91.5L94.5 93.5V97.5L98 99L100.5 97.5H105.5L105 97L110 96.5L111.5 95.5H114.5L115.5 97L117 97.5H120.5H124L126.5 95.5L129 93.5L132 93L134 94.5L137.5 97L139.5 99.5L143 100.5H144.5L145 103.5H148L150 101.5L152.5 99.5V95.5L153 93H155.5L157 90.5V88L158.5 86L159.5 83.5L161.5 82.5L162.5 81.5L170 75L169 71.5L168 68L166 66.5H163L162.5 69L159.5 70.5L156.5 69.5L153 68L151 66.5V63.5L150 61V57.5H145L143 58.5L141 57.5V55.5L143 53L145 51L146.5 48.5V45L144.5 43L140 42L140.5 43.5H136.5L135.5 42L124 47.5L114.5 48.5L108.5 51L103 52L100.5 57.5L99.5 63.5L96.5 65.5L89 62L76.5 67.5H74V70.5L75 71.5L74.5 74.5L78.5 76.5V78.5H76.5L75.5 77L76.5 81.5" stroke="white" stroke-width="2"/>
</svg>
